<?xml version="1.0" encoding="utf-8"?>
<!-- Generator: Adobe Illustrator 19.2.1, SVG Export Plug-In . SVG Version: 6.00 Build 0)  -->
<svg version="1.1" id="Layer_1" xmlns="http://www.w3.org/2000/svg" xmlns:xlink="http://www.w3.org/1999/xlink" x="0px" y="0px"
	 width="100px" height="61.7px" viewBox="0 0 100 61.7" style="enable-background:new 0 0 100 61.7;" xml:space="preserve">
<style type="text/css">
	.st0{fill:#010101;}
</style>
<path class="st0" d="M67,8.3h19.9c0.7,2.9,3.3,5,6.4,5c3.7,0,6.7-3,6.7-6.7S97,0,93.3,0c-3.1,0-5.7,2.1-6.4,5H56.7V0H43.3v5H13.1
	c-0.7-2.9-3.3-5-6.4-5C3,0,0,3,0,6.7s3,6.7,6.7,6.7c3.1,0,5.7-2.1,6.4-5H33c-16.1,6.5-27.3,22-27.9,40H0v13.3h13.3V48.3H8.4
	C9.2,28.5,23.8,12,43.3,8.9v4.5h13.3V8.9C76.2,12,90.8,28.5,91.6,48.3h-4.9v13.3H100V48.3h-5C94.3,30.4,83.1,14.9,67,8.3z M10,58.3
	H3.3v-6.7H10V58.3z M93.3,3.3c1.8,0,3.3,1.5,3.3,3.3S95.2,10,93.3,10C91.5,10,90,8.5,90,6.7S91.5,3.3,93.3,3.3z M6.7,10
	c-1.8,0-3.3-1.5-3.3-3.3s1.5-3.3,3.3-3.3S10,4.8,10,6.7S8.5,10,6.7,10z M53.3,10h-6.7V5.1V3.3h6.7v1.8V10z M96.7,58.3H90v-6.7h6.7
	V58.3z"/>
</svg>
