<?xml version="1.0" encoding="utf-8"?>
<!-- Generator: Adobe Illustrator 19.2.1, SVG Export Plug-In . SVG Version: 6.00 Build 0)  -->
<svg version="1.1" id="Layer_1" xmlns="http://www.w3.org/2000/svg" xmlns:xlink="http://www.w3.org/1999/xlink" x="0px" y="0px"
	 width="100px" height="100px" viewBox="0 0 100 100" style="enable-background:new 0 0 100 100;" xml:space="preserve">
<path d="M79.4,5.9c8.1,0,14.7,6.6,14.7,14.7v58.8c0,8.1-6.6,14.7-14.7,14.7H20.6c-8.1,0-14.7-6.6-14.7-14.7V20.6
	c0-8.1,6.6-14.7,14.7-14.7H79.4 M79.4,0H20.6C9.2,0,0,9.2,0,20.6v58.8C0,90.8,9.2,100,20.6,100h58.8c11.4,0,20.6-9.2,20.6-20.6V20.6
	C100,9.2,90.8,0,79.4,0L79.4,0z"/>
</svg>
