<?xml version="1.0" encoding="utf-8"?>
<!-- Generator: Adobe Illustrator 19.2.1, SVG Export Plug-In . SVG Version: 6.00 Build 0)  -->
<svg version="1.1" id="Layer_1" xmlns="http://www.w3.org/2000/svg" xmlns:xlink="http://www.w3.org/1999/xlink" x="0px" y="0px"
	 width="100px" height="65px" viewBox="0 0 100 65" style="enable-background:new 0 0 100 65;" xml:space="preserve">
<style type="text/css">
	.st0{fill:#010101;}
</style>
<g transform="translate(0.000000,2000.000000) scale(0.100000,-0.100000)">
	<path class="st0" d="M596.2,19999.5c-15.1-0.7-30.1-2.3-38.3-3.9c-18.6-3.8-44.8-14.4-66.6-27.2c-39.6-23.1-71-53.9-90.3-88.6
		c-1.9-3.3-3.7-6.1-4-6.1s-1.2,0.3-1.8,0.7c-2.3,1.5-14.6,6.6-21.4,8.8c-32.5,10.8-71.6,12.9-104,5.7
		c-40.5-9.1-84.3-37.6-111.7-72.8c-12.5-16-20.7-32.1-28.3-55.3c-5.6-17.2-9.4-34.7-9.4-43.8c0-5.4,0.6-4.9-12.4-11.3
		c-16.7-8.3-25.7-14.2-39.7-25.9c-6.4-5.4-18.8-17.8-24.7-24.7c-23.7-27.4-37.4-58.4-42.6-96.5c-1.3-9.4-1.3-32.9,0-42.4
		c3.5-26.1,11.7-49.8,24.8-71.5c8-13.2,16.6-24.2,28.3-36.2c27.4-28,48-40.1,84-49.5c9.8-2.5,13.9-3.3,22.7-4.3
		c15.2-1.8,36.1-2.6,84.1-3.4c93.6-1.6,476.9-2.4,515.4-1.1c78.5,2.5,98.5,6.2,137.5,24.9c19.7,9.5,33.1,19,48.4,34.2
		c10,10,14.9,15.8,22,26.4c18,26.8,28.6,58.4,31.3,93.7c2.5,32.5-3.8,62.5-19.7,94.4c-23.3,46.7-72.3,86.2-122,98.4
		c-5,1.2-5.8,1.6-5.8,2.5c0,0.6,0.6,5.7,1.4,11.4c1.3,9.4,1.4,12,1.4,26c0,11.5-0.2,17.3-0.9,22.5c-3.6,28.9-11,53.3-23.9,79.5
		c-20.9,42.4-52.1,77.5-88.8,99.7c-24.4,14.8-67,31.5-87.6,34.4C641.2,20000,616.4,20000.5,596.2,19999.5z M645.9,19970
		c7.6-0.9,12.4-2.1,22.5-5.4c23.6-7.8,48.7-19.4,63.6-29.5c29.5-19.7,54.2-48.4,71.2-82.9c8.1-16.3,12.5-28.1,16.6-44.2
		c4.2-16.4,5.9-29.9,5.8-46.4c0-10.2-0.3-13.8-1.7-24.6c-3-23.7-3.1-26.7-0.4-31.3c2.6-4.5,4.9-5.7,15.8-8.6
		c21.8-5.8,26.6-7.4,37.1-12.4c30.9-14.7,58.8-40.6,74.9-69.6c6.1-10.9,13.4-30.1,16-42.2c2.3-10.4,3.1-18,3.1-29.8
		c0-15.4-1.6-27.6-5.4-43c-10.9-42.9-36.3-75.7-74.5-96.2c-7.6-4-24-11.1-31.9-13.8c-23.4-7.8-50.2-10.2-129-11.5
		c-55.9-0.9-393,0.2-483,1.6c-64.1,1-82.1,2.1-97.8,5.9c-32.7,8.1-48.4,16.9-72.5,41.2c-18.9,18.9-32.1,39.9-39.8,63
		c-12.7,38.6-9.5,79.3,9.4,116.9c9.9,19.8,29.6,42.2,50.9,58.1c8.4,6.2,13,9,24.8,14.7c11.7,5.7,17.1,9.1,20.5,12.7
		c5.1,5.5,6.6,9.6,7.2,20.6c1.5,23.7,12.8,57.4,25.9,77c6,9,10.1,13.9,19.3,23.1c18.9,19,41.1,33.3,65.1,42.3
		c22.7,8.5,50.3,10.7,78.5,6.3c18.9-2.9,30.3-6.7,49.3-16.3l11.6-5.8h3.9c4.5,0,8.1,1.5,10.7,4.5c0.8,1,5,7.8,9.2,15.2
		c4.2,7.4,9.1,15.5,10.8,18.1c26.2,39.2,75,74.1,122.5,87.7c9.2,2.6,21.4,4.2,39.9,5.2C606.8,19971.1,640,19970.8,645.9,19970z"/>
</g>
</svg>
