<?xml version="1.0" encoding="utf-8"?>
<!-- Generator: Adobe Illustrator 19.2.1, SVG Export Plug-In . SVG Version: 6.00 Build 0)  -->
<svg version="1.1" id="Layer_1" xmlns="http://www.w3.org/2000/svg" xmlns:xlink="http://www.w3.org/1999/xlink" x="0px" y="0px"
	 width="100px" height="100px" viewBox="0 0 100 100" style="enable-background:new 0 0 100 100;" xml:space="preserve">
<style type="text/css">
	.st0{fill:#010101;}
</style>
<g>
	<path class="st0" d="M98.3,26.7h-3.4c-0.4-5.2-2.4-9.9-5.6-13.6l1.9-1.9c0.7-0.7,0.7-1.7,0-2.4s-1.7-0.7-2.4,0l-1.9,1.9
		c-3.7-3.2-8.4-5.3-13.6-5.6V1.7c0-0.9-0.7-1.7-1.7-1.7S70,0.7,70,1.7v3.4c-5.2,0.4-9.9,2.4-13.6,5.6l-1.9-1.9
		c-0.7-0.7-1.7-0.7-2.4,0s-0.7,1.7,0,2.4l1.9,1.9c-3.2,3.7-5.3,8.4-5.6,13.6H45c-0.9,0-1.7,0.7-1.7,1.7S44.1,30,45,30h3.4
		c0.4,5.2,2.4,9.9,5.6,13.6l-1.9,1.9c-0.2,0.2-0.3,0.4-0.4,0.6c-1.9-1.8-4.1-3.3-6.4-4.5l1.2-2.7c0.4-0.8,0-1.8-0.8-2.2
		c-0.8-0.4-1.8,0-2.2,0.8l-1.2,2.7c-3.3-1.3-6.9-2-10.6-2c-3.2,0-6.4,0.5-9.3,1.5l-0.8-2.1c-0.3-0.9-1.3-1.3-2.2-0.9
		c-0.9,0.3-1.3,1.3-0.9,2.2l0.8,2.1C13.1,43.9,8.1,48.7,5,54.7l-2.7-1.2c-0.8-0.4-1.8,0-2.2,0.8c-0.4,0.8,0,1.8,0.8,2.2l2.7,1.2
		c-1.3,3.3-2,6.9-2,10.6c0,3.2,0.5,6.4,1.5,9.3l-2.1,0.8c-0.9,0.3-1.3,1.3-0.9,2.2c0.3,0.7,0.9,1.1,1.6,1.1c0.2,0,0.4,0,0.6-0.1
		l2.1-0.8C7.2,86.9,12,91.9,18,95l-1.2,2.7c-0.4,0.8,0,1.8,0.8,2.2c0.2,0.1,0.5,0.1,0.7,0.1c0.6,0,1.2-0.4,1.5-1l1.2-2.7
		c3.3,1.3,6.9,2,10.6,2c3.2,0,6.4-0.5,9.3-1.5l0.8,2.1c0.3,0.7,0.9,1.1,1.6,1.1c0.2,0,0.4,0,0.6-0.1c0.9-0.3,1.3-1.3,0.9-2.2
		l-0.8-2.1C50.2,92.8,55.3,88,58.3,82l2.7,1.2c0.2,0.1,0.5,0.1,0.7,0.1c0.6,0,1.2-0.4,1.5-1c0.4-0.8,0-1.8-0.8-2.2L59.7,79
		c1.3-3.3,2-6.9,2-10.6c0-3.2-0.5-6.4-1.5-9.3l2.1-0.8c0.9-0.3,1.3-1.3,0.9-2.2c-0.3-0.9-1.3-1.3-2.2-0.9L59,55.9
		c-1.3-2.8-3-5.4-5.1-7.7c0.2-0.1,0.5-0.2,0.6-0.4l1.9-1.9c3.7,3.2,8.4,5.3,13.6,5.6V55c0,0.9,0.7,1.7,1.7,1.7s1.7-0.7,1.7-1.7v-3.4
		c5.2-0.4,9.9-2.4,13.6-5.6l2,2c0.3,0.3,0.8,0.5,1.2,0.5s0.9-0.2,1.2-0.5c0.7-0.7,0.7-1.7,0-2.4l-2-2c3.2-3.7,5.3-8.4,5.6-13.6h3.4
		c0.9,0,1.7-0.7,1.7-1.7S99.3,26.7,98.3,26.7z M31.7,41.7c3.3,0,6.4,0.6,9.3,1.7l-8.2,18.4c-0.4-0.1-0.7-0.1-1.1-0.1
		c-3.7,0-6.7,3-6.7,6.7c0,0.3,0,0.5,0.1,0.8L6.3,76.4C5.4,73.9,5,71.2,5,68.3C5,53.6,17,41.7,31.7,41.7z M28.6,69.6
		C28.6,69.5,28.6,69.5,28.6,69.6C28.6,69.5,28.6,69.5,28.6,69.6c-0.2-0.4-0.2-0.8-0.2-1.2c0-1.8,1.5-3.3,3.3-3.3
		c0.5,0,0.9,0.1,1.3,0.3c0,0,0,0,0,0c0,0,0,0,0,0c1.2,0.5,2,1.7,2,3c0,1.8-1.5,3.3-3.3,3.3C30.3,71.7,29.1,70.8,28.6,69.6z
		 M7.5,79.5l18.8-7.3c1.2,1.7,3.2,2.8,5.4,2.8c0.3,0,0.5,0,0.8-0.1l7.3,18.8c-2.6,0.8-5.3,1.3-8.1,1.3C21,95,11.7,88.6,7.5,79.5z
		 M42.9,92.5l-7.3-18.8c1.7-1.2,2.8-3.2,2.8-5.4c0-2.1-1-4-2.5-5.2L44,44.7c8.5,4.5,14.3,13.4,14.3,23.6C58.3,79,52,88.3,42.9,92.5z
		 M71.7,48.3c-11,0-20-9-20-20s9-20,20-20s20,9,20,20S82.7,48.3,71.7,48.3z"/>
	<path class="st0" d="M71.7,21.7c-3.7,0-6.7,3-6.7,6.7s3,6.7,6.7,6.7s6.7-3,6.7-6.7S75.3,21.7,71.7,21.7z M71.7,31.7
		c-1.8,0-3.3-1.5-3.3-3.3s1.5-3.3,3.3-3.3s3.3,1.5,3.3,3.3S73.5,31.7,71.7,31.7z"/>
</g>
</svg>
