<?xml version="1.0" encoding="utf-8"?>
<!-- Generator: Adobe Illustrator 19.2.1, SVG Export Plug-In . SVG Version: 6.00 Build 0)  -->
<svg version="1.1" id="Layer_1" xmlns="http://www.w3.org/2000/svg" xmlns:xlink="http://www.w3.org/1999/xlink" x="0px" y="0px"
	 width="67.2px" height="100px" viewBox="0 0 67.2 100" style="enable-background:new 0 0 67.2 100;" xml:space="preserve">
<style type="text/css">
	.st0{fill:#202A34;}
</style>
<g>
	<path class="st0" d="M66.9,64.8c-0.2-0.4-0.5-0.2-0.6,0.2c-1.7,2.8-4.7,6.9-9.2,12.1c-5.6,6.5-12.2,12.5-14.3,12.7
		c-1.2,0.1-3.1-1.4-3.2-4.6c-0.5-6.7,4.3-15.5,12.1-31.5c3.1-6.6,8.2-14.8,4.9-17.2c-1.4-0.8-4.3-1.9-5.9-1.8
		c-2.8,0.1-3.8,1.9-5.7,4.7c-1.9,3-15.4,19.6-15.4,19.6c-7,9.2-12.3,16.6-14.3,19.8c2.1-6.6,9.2-26,21.1-58.7
		c2-5.7,4.5-11.2,4.4-13.4c-0.1-1.9-1.4-3.4-3.9-5c-2-1.3-5.1-1.9-6.7-1.9c-1.5,0-4,12-8.3,25.9l-15,44.7C2.1,85.3-0.1,93.2,0,94.5
		c0.1,3.2,5.7,5.7,9,5.4c0.7,0,1.7-3.3,3.2-6.2c4-7.2,8.3-13.8,13.1-19.9c7.1-9.2,12.3-14.3,13.3-15.1C35.9,66,34,72.1,33.3,77
		c-1.4,9.6,0.2,15.6,4.6,18.8c7,5.2,15.5-3.2,21.5-12.7c1.8-3.2,3.4-6.4,5.1-10.1s2.6-6,2.7-7.6C67.2,65.4,67.1,65.1,66.9,64.8z"/>
</g>
</svg>
