<?xml version="1.0" encoding="utf-8"?>
<!-- Generator: Adobe Illustrator 19.2.1, SVG Export Plug-In . SVG Version: 6.00 Build 0)  -->
<svg version="1.1" id="Layer_1" xmlns="http://www.w3.org/2000/svg" xmlns:xlink="http://www.w3.org/1999/xlink" x="0px" y="0px"
	 viewBox="0 0 68.8 43.7" style="enable-background:new 0 0 68.8 43.7;" xml:space="preserve">
<style type="text/css">
	.st0{fill:#010202;}
</style>
<g>
	<path class="st0" d="M21.8,0l16.8,42.8h-4.4L29,29.5H9.5L4.3,42.8H0L17.2,0H21.8z M27.6,26l-8.3-22l-8.6,22H27.6z"/>
	<path class="st0" d="M42.5,16.7c0.6-1.3,1.5-2.4,2.6-3.2c1.1-0.8,2.4-1.5,3.9-1.9c1.5-0.4,3.1-0.6,4.9-0.6c1.4,0,2.7,0.1,4.1,0.4
		c1.4,0.3,2.6,0.8,3.7,1.5c1.1,0.7,2,1.7,2.6,3c0.7,1.3,1,3,1,5.1v16.4c0,1.5,0.7,2.3,2.2,2.3c0.4,0,0.8-0.1,1.2-0.2v3.2
		c-0.4,0.1-0.8,0.1-1.2,0.2c-0.3,0-0.8,0.1-1.3,0.1c-1,0-1.7-0.1-2.3-0.4c-0.6-0.3-1-0.6-1.3-1.1c-0.3-0.5-0.5-1-0.6-1.7
		s-0.1-1.4-0.1-2.2h-0.1c-0.7,1-1.4,1.9-2.1,2.7c-0.7,0.8-1.5,1.4-2.3,2c-0.9,0.5-1.8,0.9-2.9,1.2c-1.1,0.3-2.4,0.4-3.9,0.4
		c-1.4,0-2.8-0.2-4-0.5c-1.3-0.3-2.4-0.9-3.3-1.6c-0.9-0.7-1.7-1.7-2.2-2.8c-0.5-1.1-0.8-2.5-0.8-4c0-2.2,0.5-3.8,1.4-5.1
		c1-1.2,2.2-2.1,3.8-2.8c1.6-0.6,3.4-1.1,5.3-1.3c2-0.3,4-0.5,6-0.8c0.8-0.1,1.5-0.2,2.1-0.3c0.6-0.1,1.1-0.3,1.5-0.6
		c0.4-0.3,0.7-0.7,0.9-1.2c0.2-0.5,0.3-1.2,0.3-2c0-1.3-0.2-2.3-0.6-3.2c-0.4-0.8-1-1.5-1.7-1.9c-0.7-0.5-1.6-0.8-2.6-1
		c-1-0.2-2-0.3-3.2-0.3c-2.4,0-4.4,0.6-5.9,1.7c-1.5,1.1-2.3,3-2.4,5.5h-3.8C41.5,19.6,41.9,18,42.5,16.7z M61.4,25.9
		c-0.2,0.4-0.7,0.8-1.4,1c-0.7,0.2-1.3,0.3-1.8,0.4c-1.6,0.3-3.2,0.5-4.9,0.8c-1.7,0.2-3.3,0.5-4.7,1c-1.4,0.4-2.5,1.1-3.5,1.9
		c-0.9,0.8-1.3,2-1.3,3.5c0,1,0.2,1.8,0.6,2.5c0.4,0.7,0.9,1.4,1.5,1.9s1.4,1,2.2,1.2c0.8,0.3,1.7,0.4,2.6,0.4
		c1.4,0,2.8-0.2,4.1-0.7c1.3-0.4,2.5-1.1,3.5-1.9c1-0.8,1.8-1.9,2.3-3.1c0.6-1.2,0.9-2.6,0.9-4.1v-4.9H61.4z"/>
</g>
</svg>
