<?xml version="1.0" encoding="utf-8"?>
<!-- Generator: Adobe Illustrator 19.2.1, SVG Export Plug-In . SVG Version: 6.00 Build 0)  -->
<svg version="1.1" id="Layer_1" xmlns="http://www.w3.org/2000/svg" xmlns:xlink="http://www.w3.org/1999/xlink" x="0px" y="0px"
	 width="100px" height="100px" viewBox="0 0 100 100" style="enable-background:new 0 0 100 100;" xml:space="preserve">
<style type="text/css">
	.st0{fill:#010101;}
</style>
<g>
	<path class="st0" d="M47.4,39.3V65c0,1.9,1.2,3.2,3.1,3.2c1.9,0,3.1-1.2,3.1-3.2V39.3c0-1.9-1.3-3.3-3.1-3.3
		C48.6,36,47.4,37.4,47.4,39.3z"/>
	<path class="st0" d="M50.5,71.7c-2.2,0-4.1,1.9-4.1,4.1c0,2.2,1.9,4.1,4.1,4.1c2.2,0,4.1-1.8,4.1-4.1S52.7,71.7,50.5,71.7z"/>
	<path class="st0" d="M99.5,88L52.3,9.3C51.8,8.5,50.9,8,50,8c-1,0-1.8,0.5-2.3,1.3L0.4,88c-0.5,0.9-0.5,1.8,0,2.7
		C0.8,91.5,1.7,92,2.7,92h94.6c1,0,1.8-0.5,2.3-1.3C100.1,90,100.2,88.8,99.5,88z M7.5,86.7L50,16l42.5,70.7H7.5z"/>
</g>
</svg>
